<svg xmlns="http://www.w3.org/2000/svg" xmlns:xlink="http://www.w3.org/1999/xlink" version="1.1" id="id_svgCanvas" x="0px" y="0px" width="32px" height="32px" viewBox="0 0 32 32" style="fill: rgb(255, 255, 255);" xml:space="preserve" preserveAspectRatio="none">
<path d="M11,9h-1V5h1V9z M19,8h-6v1h6V8z M22,5h-1v4h1V5z M29,10v15c0,1.104-0.896,2-2,2H5c-1.104,0-2-0.896-2-2V10  c0-1.104,0.896-2,2-2h3v1H5c-0.552,0-1,0.447-1,1v2h24v-2c0-0.553-0.447-1-1-1h-3V8h3C28.104,8,29,8.896,29,10z M28,13H4v12  c0,0.553,0.448,1,1,1h22c0.553,0,1-0.447,1-1V13z M9,16v2H7v-2H9 M10,15H6v4h4V15L10,15z M14,16v2h-2v-2H14 M15,15h-4v4h4V15L15,15z   M19,16v2h-2v-2H19 M20,15h-4v4h4V15L20,15z M24,16v2h-2v-2H24 M25,15h-4v4h4V15L25,15z M9,21v2H7v-2H9 M10,20H6v4h4V20L10,20z   M14,21v2h-2v-2H14 M15,20h-4v4h4V20L15,20z M19,21v2h-2v-2H19 M20,20h-4v4h4V20L20,20z" style="fill: rgb(255, 255, 255);"></path>
</svg>