<svg xmlns="http://www.w3.org/2000/svg" xmlns:xlink="http://www.w3.org/1999/xlink" version="1.1" id="id_svgCanvas" x="0px" y="0px" width="64px" height="64px" viewBox="0 0 64 64" style="enable-background:new 0 0 64 64;" xml:space="preserve">

<g>
	<defs>
		<path id="573339897_SVGID_1_" d="M60.268,29.732c-1.061-1.061-7.425-7.425-8.485-8.485c-0.977-0.977-2.559-0.977-3.535,0    c-0.977,0.976-0.977,2.559,0,3.536L49.465,26H37V13.536c0.563,0.563,1.003,1.002,1.218,1.218c0.977,0.976,2.559,0.976,3.535,0    c0.977-0.977,0.977-2.559,0-3.536c0,0-8.609-8.597-8.661-8.629c-0.982-0.818-2.438-0.778-3.359,0.144    c-1.061,1.061-7.425,7.425-8.485,8.485c-0.977,0.977-0.977,2.559,0,3.536c0.976,0.976,2.559,0.976,3.536,0    c0.215-0.215,0.655-0.655,1.217-1.217V26H13.535c0.563-0.563,1.003-1.002,1.218-1.218c0.976-0.977,0.976-2.56,0-3.536    c-0.977-0.977-2.559-0.977-3.536,0c-1.061,1.061-7.425,7.424-8.485,8.485c-0.923,0.923-0.962,2.382-0.14,3.364    c0.031,0.051,8.625,8.656,8.625,8.656c0.977,0.977,2.559,0.977,3.536,0c0.976-0.977,0.976-2.559,0-3.535    c-0.215-0.215-0.655-0.655-1.218-1.218H26v12.465c-0.563-0.563-1.002-1.003-1.217-1.218c-0.977-0.977-2.56-0.977-3.536,0    c-0.977,0.977-0.977,2.559,0,3.535c1.061,1.061,7.424,7.425,8.485,8.485c0.915,0.916,2.358,0.961,3.34,0.16    c0.06-0.038,8.681-8.646,8.681-8.646c0.977-0.977,0.977-2.559,0-3.535s-2.559-0.977-3.535,0c-0.215,0.215-0.655,0.655-1.218,1.218    V37h12.465c-0.563,0.563-1.003,1.003-1.218,1.218c-0.977,0.977-0.977,2.559,0,3.535s2.559,0.977,3.535,0    c0,0,8.606-8.621,8.642-8.677C61.229,32.094,61.185,30.649,60.268,29.732z"></path>
	</defs>
	<clipPath id="573339897_SVGID_2_">
		<use xlink:href="#573339897_SVGID_1_" style="overflow:visible;"></use>
	</clipPath>
	<g class="st0" style="clip-path:url(#573339897_SVGID_2_);;">
		<rect x="1" y="1" class="stshockcolor" width="60" height="60" style="fill: #fff;"></rect>
		
			<rect x="14.908" y="14.908" transform="matrix(0.7071 -0.7071 0.7071 0.7071 -13.0477 31.5002)" class="st2" width="33.184" height="33.184" style="fill:#231F20;fill-opacity:0.15;;"></rect>
	</g>
</g>
</svg>