<svg xmlns="http://www.w3.org/2000/svg" xmlns:xlink="http://www.w3.org/1999/xlink" version="1.1" id="id_svgCanvas" x="0px" y="0px" width="24px" height="24px" viewBox="0 0 24 24" style="enable-background:new 0 0 24 24;" xml:space="preserve">

<path id="58545742_shock_x5F_color_rel" class="stshockcolor" d="M2,13v5.721l2-1.601V13H2z M17.91,18H13v2h7.41L17.91,18z M6.1,18l-2.5,2H11v-2H6.1z   M2,5.28V11h2V6.88L2,5.28z M20,13v4.12l2,1.601V13H20z M13,4v2h4.91l2.5-2H13z M3.6,4l2.5,2H11V4H3.6z M20,6.88V11h2V5.28L20,6.88z  " style="fill: rgb(255, 255, 255);"></path>
<rect class="st0" width="24" height="24" style="fill:none;;"></rect>
</svg>